<svg version="1.1" id="Layer_1" xmlns="http://www.w3.org/2000/svg" xmlns:xlink="http://www.w3.org/1999/xlink" x="0px" y="0px"
	 width="100%" viewBox="0 0 3173 3064" enable-background="new 0 0 3173 3064" xml:space="preserve">
<path fill="#FFFFFF" opacity="1.000000" stroke="none" 
	d="
M2098.000000,3066.000000 
	C1398.666870,3066.000000 700.333740,3066.000000 2.000468,3066.000000 
	C2.000312,2044.667236 2.000312,1023.334351 2.000156,2.001153 
	C1059.999146,2.000769 2117.998291,2.000769 3175.998047,2.000385 
	C3175.998779,1023.332214 3175.998779,2044.664429 3175.999512,3065.998291 
	C2817.000000,3066.000000 2458.000000,3066.000000 2098.000000,3066.000000 
M2304.688477,1431.673462 
	C2327.298340,1431.227295 2349.912598,1430.925659 2372.516846,1430.280640 
	C2386.121338,1429.892212 2399.788574,1429.663086 2413.291992,1428.152466 
	C2448.984863,1424.159180 2482.848877,1413.439575 2514.786133,1397.245972 
	C2545.850342,1381.494873 2573.518066,1360.962280 2597.840576,1335.802124 
	C2625.244629,1307.454590 2647.146484,1275.523560 2661.673096,1238.940552 
	C2670.368896,1217.041626 2677.303955,1194.433716 2684.756104,1172.053223 
	C2695.147949,1140.844116 2706.190186,1109.812988 2715.355225,1078.241333 
	C2740.356201,992.119629 2764.535400,905.759033 2789.003906,819.482849 
	C2797.490479,789.559448 2799.208008,759.317688 2792.673828,728.793823 
	C2784.788818,691.960083 2767.292969,660.450562 2739.947266,634.477234 
	C2705.905762,602.144165 2665.279541,584.679260 2618.470459,584.548157 
	C2518.861572,584.269043 2419.249512,585.311157 2319.638184,585.639465 
	C2217.655273,585.975586 2115.671875,586.033203 2013.689087,586.345337 
	C1894.411377,586.710388 1775.134277,587.279175 1655.856567,587.637756 
	C1602.191040,587.799133 1548.524536,587.747437 1494.858887,587.626404 
	C1471.945679,587.574707 1451.161865,594.302063 1434.390747,609.586609 
	C1421.955200,620.919800 1411.155029,634.214294 1400.596313,647.411194 
	C1354.694824,704.782410 1309.243286,762.513367 1263.450439,819.971863 
	C1200.044189,899.530579 1136.522461,978.997437 1072.972412,1058.441284 
	C921.576843,1247.700073 770.134705,1436.921631 618.713318,1626.159668 
	C543.105774,1720.650024 467.464050,1815.113037 391.929688,1909.661743 
	C376.981201,1928.373413 367.845673,1949.763794 367.802887,1973.837158 
	C367.536896,2123.501465 367.633484,2273.166504 367.706329,2422.831299 
	C367.717499,2445.774414 380.351379,2462.898682 402.142914,2470.058105 
	C415.495941,2474.445557 429.271271,2476.343262 443.326752,2476.342285 
	C588.991577,2476.330322 734.656860,2476.152588 880.320984,2476.477295 
	C912.377441,2476.548828 937.393555,2464.221436 957.100647,2439.292480 
	C1000.809937,2384.001465 1044.816895,2328.945312 1088.722412,2273.809082 
	C1157.894531,2186.943359 1227.066162,2100.076904 1296.269409,2013.235596 
	C1354.699585,1939.913574 1413.198486,1866.646240 1471.616821,1793.314819 
	C1491.763428,1768.024902 1517.417969,1755.461914 1550.225586,1755.399414 
	C1587.683228,1755.328003 1631.160645,1782.524658 1638.397461,1827.573975 
	C1639.813721,1836.390747 1641.340210,1845.293213 1641.540649,1854.184814 
	C1642.552979,1899.104492 1643.321411,1944.018555 1640.474365,1988.933105 
	C1639.045044,2011.481445 1638.776489,2034.113525 1638.386353,2056.714844 
	C1637.887329,2085.639160 1639.199097,2114.499023 1641.560913,2143.347656 
	C1644.310913,2176.939209 1650.333252,2209.845215 1661.154419,2241.732666 
	C1679.817505,2296.728027 1711.089478,2343.479492 1753.988525,2382.670654 
	C1782.038452,2408.296631 1813.494141,2428.447754 1848.057129,2443.935059 
	C1901.455200,2467.862549 1958.255859,2475.316895 2015.921021,2477.483398 
	C2049.532471,2478.746338 2083.222412,2478.618164 2116.862305,2478.125732 
	C2134.058105,2477.874268 2151.370850,2476.414307 2168.371094,2473.808105 
	C2212.656006,2467.020508 2240.553467,2442.166260 2251.931152,2398.010498 
	C2267.758545,2336.587891 2284.906982,2275.505371 2301.532959,2214.288818 
	C2321.555664,2140.566406 2341.621338,2066.855713 2361.671875,1993.141113 
	C2386.952148,1900.201782 2412.232666,1807.262451 2437.519287,1714.324829 
	C2445.280762,1685.797241 2453.170166,1657.303711 2460.794434,1628.739624 
	C2465.327881,1611.754883 2456.336182,1596.463135 2439.830322,1592.890381 
	C2436.315674,1592.129761 2432.559082,1592.347168 2428.914062,1592.346558 
	C2282.916016,1592.323120 2136.917725,1592.332397 1990.919556,1592.300049 
	C1986.266479,1592.298950 1981.520874,1592.424072 1976.974976,1591.613159 
	C1939.505371,1584.929077 1908.343262,1567.329346 1884.653076,1537.256836 
	C1862.105225,1508.634399 1851.612793,1476.178223 1854.355469,1439.668457 
	C1854.521362,1437.461182 1855.015991,1435.278564 1855.469849,1432.362549 
	C2004.908081,1432.132324 2153.830811,1431.902954 2304.688477,1431.673462 
z"/>
<path fill="#FC0016" opacity="1.000000" stroke="none" 
	d="
M2303.720947,1431.673462 
	C2153.830811,1431.902954 2004.908081,1432.132324 1855.469849,1432.362549 
	C1855.015991,1435.278564 1854.521362,1437.461182 1854.355469,1439.668457 
	C1851.612793,1476.178223 1862.105225,1508.634399 1884.653076,1537.256836 
	C1908.343262,1567.329346 1939.505371,1584.929077 1976.974976,1591.613159 
	C1981.520874,1592.424072 1986.266479,1592.298950 1990.919556,1592.300049 
	C2136.917725,1592.332397 2282.916016,1592.323120 2428.914062,1592.346558 
	C2432.559082,1592.347168 2436.315674,1592.129761 2439.830322,1592.890381 
	C2456.336182,1596.463135 2465.327881,1611.754883 2460.794434,1628.739624 
	C2453.170166,1657.303711 2445.280762,1685.797241 2437.519287,1714.324829 
	C2412.232666,1807.262451 2386.952148,1900.201782 2361.671875,1993.141113 
	C2341.621338,2066.855713 2321.555664,2140.566406 2301.532959,2214.288818 
	C2284.906982,2275.505371 2267.758545,2336.587891 2251.931152,2398.010498 
	C2240.553467,2442.166260 2212.656006,2467.020508 2168.371094,2473.808105 
	C2151.370850,2476.414307 2134.058105,2477.874268 2116.862305,2478.125732 
	C2083.222412,2478.618164 2049.532471,2478.746338 2015.921021,2477.483398 
	C1958.255859,2475.316895 1901.455200,2467.862549 1848.057129,2443.935059 
	C1813.494141,2428.447754 1782.038452,2408.296631 1753.988525,2382.670654 
	C1711.089478,2343.479492 1679.817505,2296.728027 1661.154419,2241.732666 
	C1650.333252,2209.845215 1644.310913,2176.939209 1641.560913,2143.347656 
	C1639.199097,2114.499023 1637.887329,2085.639160 1638.386353,2056.714844 
	C1638.776489,2034.113525 1639.045044,2011.481445 1640.474365,1988.933105 
	C1643.321411,1944.018555 1642.552979,1899.104492 1641.540649,1854.184814 
	C1641.340210,1845.293213 1639.813721,1836.390747 1638.397461,1827.573975 
	C1631.160645,1782.524658 1587.683228,1755.328003 1550.225586,1755.399414 
	C1517.417969,1755.461914 1491.763428,1768.024902 1471.616821,1793.314819 
	C1413.198486,1866.646240 1354.699585,1939.913574 1296.269409,2013.235596 
	C1227.066162,2100.076904 1157.894531,2186.943359 1088.722412,2273.809082 
	C1044.816895,2328.945312 1000.809937,2384.001465 957.100647,2439.292480 
	C937.393555,2464.221436 912.377441,2476.548828 880.320984,2476.477295 
	C734.656860,2476.152588 588.991577,2476.330322 443.326752,2476.342285 
	C429.271271,2476.343262 415.495941,2474.445557 402.142914,2470.058105 
	C380.351379,2462.898682 367.717499,2445.774414 367.706329,2422.831299 
	C367.633484,2273.166504 367.536896,2123.501465 367.802887,1973.837158 
	C367.845673,1949.763794 376.981201,1928.373413 391.929688,1909.661743 
	C467.464050,1815.113037 543.105774,1720.650024 618.713318,1626.159668 
	C770.134705,1436.921631 921.576843,1247.700073 1072.972412,1058.441284 
	C1136.522461,978.997437 1200.044189,899.530579 1263.450439,819.971863 
	C1309.243286,762.513367 1354.694824,704.782410 1400.596313,647.411194 
	C1411.155029,634.214294 1421.955200,620.919800 1434.390747,609.586609 
	C1451.161865,594.302063 1471.945679,587.574707 1494.858887,587.626404 
	C1548.524536,587.747437 1602.191040,587.799133 1655.856567,587.637756 
	C1775.134277,587.279175 1894.411377,586.710388 2013.689087,586.345337 
	C2115.671875,586.033203 2217.655273,585.975586 2319.638184,585.639465 
	C2419.249512,585.311157 2518.861572,584.269043 2618.470459,584.548157 
	C2665.279541,584.679260 2705.905762,602.144165 2739.947266,634.477234 
	C2767.292969,660.450562 2784.788818,691.960083 2792.673828,728.793823 
	C2799.208008,759.317688 2797.490479,789.559448 2789.003906,819.482849 
	C2764.535400,905.759033 2740.356201,992.119629 2715.355225,1078.241333 
	C2706.190186,1109.812988 2695.147949,1140.844116 2684.756104,1172.053223 
	C2677.303955,1194.433716 2670.368896,1217.041626 2661.673096,1238.940552 
	C2647.146484,1275.523560 2625.244629,1307.454590 2597.840576,1335.802124 
	C2573.518066,1360.962280 2545.850342,1381.494873 2514.786133,1397.245972 
	C2482.848877,1413.439575 2448.984863,1424.159180 2413.291992,1428.152466 
	C2399.788574,1429.663086 2386.121338,1429.892212 2372.516846,1430.280640 
	C2349.912598,1430.925659 2327.298340,1431.227295 2303.720947,1431.673462 
z"/>
</svg>