<?xml version="1.0" encoding="UTF-8"?>
<svg xmlns="http://www.w3.org/2000/svg" width="40" height="40" viewBox="0 0 4428 4320">
  <!-- REACT "R" icon — navbar logo (1:1 square viewBox) -->
  <!-- Source: PDF deliverable page 12, scaled from 792.845x765.74 to 4428x4320 -->
  <!-- Scale: ~5.584x horizontally, ~5.641 vertically, centered in square -->
  <g transform="translate(0, 0) scale(5.584, 5.641)">
    <path fill-rule="nonzero" fill="#FC0016" d="M 696.039062 203.347656 C 704.292969 174.289062 682.414062 145.417969 652.207031 145.503906 L 372.605469 146.289062 C 365.53125 146.3125 358.832031 149.484375 354.332031 154.941406 L 349.867188 160.355469 L 309.152344 211.582031 L 97.011719 476.8125 C 93.058594 481.757812 90.90625 487.898438 90.910156 494.226562 L 90.941406 605.242188 C 91.863281 615.007812 99.144531 617.351562 107.875 618.054688 L 220.789062 618.0625 C 227.144531 617.921875 233.113281 614.96875 237.074219 609.996094 L 366.386719 447.726562 C 378.980469 430.421875 407.085938 436.941406 409.011719 458.46875 C 412.761719 500.292969 398.832031 544.558594 425.558594 581.394531 C 436.632812 596.65625 452.15625 607.839844 470.171875 613.425781 C 488.425781 619.089844 507.765625 618.570312 526.660156 618.554688 C 529.28125 618.550781 531.914062 618.492188 534.507812 618.304688 C 546.367188 617.441406 557.277344 613.839844 561.085938 600.3125 C 562.511719 595.253906 563.816406 590.15625 565.195312 585.085938 C 569.535156 569.121094 573.875 553.15625 578.214844 537.191406 L 607.675781 428.84375 L 613.921875 406.074219 C 615.113281 401.734375 611.847656 397.453125 607.351562 397.449219 L 493.738281 397.367188 C 493.71875 397.367188 493.699219 397.367188 493.679688 397.363281 C 477.449219 394.992188 464.746094 382.488281 462.328125 366.207031 C 462.328125 366.191406 462.324219 366.171875 462.324219 366.152344 L 462.324219 357.550781 C 462.324219 357.386719 462.457031 357.253906 462.621094 357.253906 L 592.414062 356.796875 C 626.007812 356.679688 655.679688 335.066406 666.25 303.183594 C 669.699219 292.773438 673.078125 281.539062 677.109375 269.992188 Z M 696.039062 203.347656 "/>
  </g>
</svg>
