<svg xmlns="http://www.w3.org/2000/svg" width="4428" height="4320" viewBox="0 0 4428 4320">
  <path fill="#FA0016" opacity="1.000000" stroke="none" 
	d="
M1306.336182,2354.565674 
	C1303.303345,2358.260010 1301.043335,2360.733154 1299.132324,2363.451660 
	C1292.363281,2373.080322 1283.127441,2376.276611 1271.512695,2376.150146 
	C1234.205688,2375.744141 1196.891479,2376.007812 1159.580078,2375.984619 
	C1156.252563,2375.982666 1152.890137,2376.045654 1149.603882,2375.617920 
	C1139.055908,2374.245117 1134.499512,2369.476562 1133.488770,2358.677979 
	C1133.117432,2354.711426 1133.306641,2350.688721 1133.305176,2346.691650 
	C1133.292969,2314.710449 1133.880737,2282.714355 1133.052368,2250.754639 
	C1132.627930,2234.379395 1137.854858,2221.493652 1148.032471,2208.852783 
	C1226.158203,2111.819824 1303.817627,2014.411621 1381.607788,1917.108765 
	C1394.503540,1900.978149 1407.683594,1885.057373 1420.067993,1868.541382 
	C1428.743896,1856.971313 1439.003296,1851.555542 1453.952271,1851.592773 
	C1553.224609,1851.839600 1652.498901,1851.305054 1751.772461,1851.273926 
	C1759.644043,1851.271484 1767.982178,1851.828125 1775.302490,1854.402588 
	C1799.681152,1862.976196 1812.945679,1888.234863 1806.275391,1914.067993 
	C1799.122314,1941.770996 1790.795532,1969.175537 1782.720093,1996.633667 
	C1779.529541,2007.481812 1776.105591,2018.307983 1771.974365,2028.824463 
	C1759.170288,2061.417969 1735.325806,2080.708252 1700.471313,2084.826172 
	C1685.325317,2086.615723 1669.890869,2086.189453 1654.583374,2086.337891 
	C1625.270386,2086.622559 1595.954102,2086.549805 1566.640015,2086.743164 
	C1560.779419,2086.781738 1554.922241,2087.347168 1549.135254,2087.665771 
	C1545.225708,2097.743652 1548.333862,2105.538330 1553.338257,2112.862549 
	C1558.772827,2120.816162 1565.954468,2126.698730 1575.529419,2128.753418 
	C1580.690552,2129.861328 1586.067749,2130.363037 1591.354980,2130.418213 
	C1624.661255,2130.765625 1657.969604,2130.951904 1691.277710,2131.110107 
	C1717.547607,2131.234619 1717.572388,2131.189209 1710.630493,2156.739258 
	C1693.528931,2219.682129 1676.405762,2282.619385 1659.284668,2345.557129 
	C1652.428711,2370.760254 1646.035889,2375.947510 1620.187744,2376.227051 
	C1606.205811,2376.378418 1592.149292,2376.635254 1578.242432,2375.466064 
	C1533.126343,2371.672852 1498.200562,2341.833984 1489.654297,2298.926270 
	C1486.953125,2285.365234 1487.293701,2271.114258 1487.069458,2257.165771 
	C1486.812744,2241.187500 1487.671509,2225.194336 1487.629395,2209.208496 
	C1487.615601,2203.957520 1487.099243,2198.442383 1485.441406,2193.508789 
	C1479.603638,2176.134521 1458.852417,2170.311279 1444.763184,2181.990234 
	C1441.228027,2184.920654 1438.487305,2188.858643 1435.585327,2192.496094 
	C1392.792969,2246.133545 1350.035034,2299.798584 1306.336182,2354.565674 
z"/> <path fill="#DC2626" opacity="1.000000" stroke="none" 
	d="
M2316.287842,2096.872314 
	C2313.760254,2103.900879 2311.628906,2109.370361 2309.381104,2115.137939 
	C2298.169189,2116.381836 2287.846680,2117.395996 2276.402588,2114.118652 
	C2288.869385,2072.861328 2301.714844,2032.494873 2315.054932,1992.125122 
	C2326.588379,1989.693726 2336.830811,1989.692017 2346.580566,1991.666382 
	C2347.360840,1993.296997 2348.025879,1994.014038 2347.881836,1994.481812 
	C2337.523926,2028.104858 2327.101318,2061.708252 2316.287842,2096.872314 
z"/>
</svg>