<?xml version="1.0" encoding="UTF-8"?>
<svg xmlns="http://www.w3.org/2000/svg" width="718.304" height="291.388" viewBox="0 0 718.304 291.388">
  <!-- REACT horizontal wordmark — all black (for light backgrounds) -->
  <!-- E letter -->
  <path fill-rule="nonzero" fill="black" d="M 219.164062 218.089844 L 257.421875 95.546875 C 257.914062 94.148438 258.300781 93.796875 259.707031 93.796875 L 329.1875 93.796875 C 330.59375 93.796875 330.910156 94.148438 330.417969 95.546875 L 321.582031 123.558594 C 321.089844 124.960938 320.703125 125.308594 319.296875 125.308594 L 295.578125 125.308594 C 294.171875 125.308594 293.785156 125.660156 293.292969 127.058594 L 289.421875 139.3125 C 288.933594 140.714844 289.246094 141.0625 290.652344 141.0625 L 313.480469 141.0625 C 314.882812 141.0625 315.199219 141.414062 314.703125 142.8125 L 306.421875 169.074219 C 305.929688 170.472656 305.542969 170.824219 304.140625 170.824219 L 281.164062 170.824219 C 279.761719 170.824219 279.375 171.175781 278.882812 172.574219 L 274.496094 186.582031 C 274.007812 187.980469 274.324219 188.332031 275.722656 188.332031 L 299.386719 188.332031 C 300.789062 188.332031 301.101562 188.679688 300.613281 190.082031 L 291.820312 218.089844 C 291.328125 219.492188 290.945312 219.84375 289.542969 219.84375 L 220.394531 219.84375 C 218.992188 219.84375 218.675781 219.492188 219.164062 218.089844 "/>
  <!-- A letter -->
  <path fill-rule="nonzero" fill="black" d="M 365.226562 155.070312 L 370.492188 155.070312 C 371.898438 155.070312 372.285156 154.71875 372.78125 153.316406 L 381.667969 125.308594 C 382.164062 123.90625 381.847656 123.558594 380.441406 123.558594 L 375.171875 123.558594 C 373.765625 123.558594 373.375 123.90625 372.882812 125.308594 L 364.007812 153.316406 C 363.507812 154.71875 363.824219 155.070312 365.226562 155.070312 M 297.945312 218.089844 L 330.328125 115.328125 C 330.824219 113.929688 331.230469 113.402344 332.375 112.527344 L 355.816406 94.847656 C 356.960938 93.972656 357.683594 93.796875 359.089844 93.796875 L 415.378906 93.796875 C 416.785156 93.796875 417.277344 94.148438 418.046875 95.199219 L 430.144531 112.179688 C 430.910156 113.230469 431.011719 113.929688 430.511719 115.328125 L 397.738281 218.089844 C 397.242188 219.492188 396.855469 219.839844 395.453125 219.839844 L 353.441406 219.839844 C 352.039062 219.839844 351.722656 219.492188 352.21875 218.089844 L 360.011719 193.582031 C 360.507812 192.183594 360.191406 191.832031 358.789062 191.832031 L 353.535156 191.832031 C 352.128906 191.832031 351.742188 192.183594 351.25 193.582031 L 343.464844 218.089844 C 342.972656 219.492188 342.585938 219.839844 341.183594 219.839844 L 299.167969 219.839844 C 297.769531 219.839844 297.453125 219.492188 297.945312 218.089844 "/>
  <!-- C letter -->
  <path fill-rule="nonzero" fill="black" d="M 422.386719 218.441406 L 411.609375 201.109375 C 410.84375 200.058594 410.742188 199.359375 411.242188 197.960938 L 437.5 115.679688 C 438.003906 114.277344 438.410156 113.753906 439.578125 112.703125 L 462.035156 95.023438 C 463.203125 93.972656 463.925781 93.796875 465.332031 93.796875 L 523.734375 93.796875 C 525.140625 93.796875 525.628906 94.144531 526.394531 95.195312 L 537.328125 112.527344 C 538.089844 113.578125 538.191406 114.277344 537.683594 115.679688 L 527.640625 146.316406 C 527.136719 147.714844 526.746094 148.066406 525.34375 148.066406 L 483.214844 148.066406 C 481.808594 148.066406 481.496094 147.714844 481.996094 146.316406 L 488.835938 125.308594 C 489.339844 123.910156 489.027344 123.558594 487.617188 123.558594 L 482.347656 123.558594 C 480.941406 123.558594 480.554688 123.910156 480.050781 125.308594 L 459.757812 188.332031 C 459.253906 189.730469 459.570312 190.082031 460.96875 190.082031 L 466.230469 190.082031 C 467.628906 190.082031 468.019531 189.730469 468.519531 188.332031 L 478.21875 158.570312 C 478.71875 157.171875 479.109375 156.820312 480.511719 156.820312 L 522.628906 156.820312 C 524.03125 156.820312 524.34375 157.171875 523.839844 158.570312 L 511.109375 197.960938 C 510.605469 199.359375 510.199219 199.886719 509.03125 200.9375 L 486.441406 218.617188 C 485.277344 219.667969 484.558594 219.839844 483.15625 219.839844 L 425.039062 219.839844 C 423.636719 219.839844 423.148438 219.492188 422.386719 218.441406 "/>
  <!-- T letter -->
  <path fill-rule="nonzero" fill="black" d="M 635.933594 95.546875 L 627.328125 121.808594 C 626.816406 123.207031 626.421875 123.558594 625.019531 123.558594 L 608.328125 123.558594 C 606.921875 123.558594 606.53125 123.910156 606.023438 125.308594 L 575.785156 218.089844 C 575.277344 219.492188 574.890625 219.84375 573.488281 219.84375 L 531.472656 219.84375 C 530.070312 219.84375 529.761719 219.492188 530.265625 218.089844 L 560.339844 125.308594 C 560.847656 123.910156 560.535156 123.558594 559.128906 123.558594 L 542.085938 123.558594 C 540.679688 123.558594 540.367188 123.207031 540.875 121.808594 L 549.394531 95.546875 C 549.902344 94.148438 550.292969 93.796875 551.699219 93.796875 L 634.722656 93.796875 C 636.132812 93.796875 636.445312 94.148438 635.933594 95.546875 "/>
  <!-- R letter (also black) -->
  <path fill-rule="nonzero" fill="black" d="M 246.390625 104.882812 C 248.679688 96.832031 242.617188 88.828125 234.246094 88.851562 L 156.757812 89.070312 C 154.796875 89.078125 152.941406 89.957031 151.695312 91.46875 L 150.457031 92.96875 L 139.175781 107.164062 L 80.382812 180.667969 C 79.289062 182.039062 78.691406 183.738281 78.691406 185.496094 L 78.703125 216.257812 C 78.957031 218.964844 80.976562 219.617188 83.394531 219.808594 L 114.6875 219.8125 C 116.449219 219.773438 118.101562 218.953125 119.199219 217.578125 L 155.035156 172.605469 C 158.527344 167.8125 166.3125 169.621094 166.847656 175.585938 C 167.886719 187.175781 164.027344 199.441406 171.433594 209.652344 C 174.5 213.878906 178.804688 216.980469 183.796875 218.527344 C 188.855469 220.097656 194.214844 219.953125 199.453125 219.949219 C 200.175781 219.949219 200.910156 219.933594 201.625 219.878906 C 204.910156 219.640625 207.9375 218.644531 208.992188 214.894531 C 209.386719 213.492188 209.746094 212.078125 210.128906 210.671875 C 211.332031 206.25 212.535156 201.824219 213.738281 197.402344 C 216.460938 187.390625 219.183594 177.382812 221.902344 167.375 L 223.632812 161.066406 C 223.964844 159.863281 223.058594 158.675781 221.8125 158.675781 L 190.328125 158.652344 C 190.324219 158.652344 190.316406 158.652344 190.3125 158.652344 C 185.8125 157.992188 182.292969 154.527344 181.621094 150.015625 C 181.621094 150.011719 181.621094 150.007812 181.621094 150 L 181.621094 147.617188 C 181.621094 147.570312 181.660156 147.535156 181.703125 147.535156 L 217.675781 147.410156 C 226.984375 147.375 235.207031 141.386719 238.136719 132.550781 C 239.089844 129.664062 240.027344 126.554688 241.144531 123.351562 Z M 246.390625 104.882812 "/>
</svg>
