<?xml version="1.0" encoding="UTF-8"?>
<svg xmlns="http://www.w3.org/2000/svg" width="718.304" height="291.388" viewBox="0 0 718.304 291.388">
  <!-- REACT horizontal wordmark — red R + white EACT (for dark backgrounds) -->
  <!-- Source: PDF deliverable page 5 -->
  <!-- E letter -->
  <path fill-rule="nonzero" fill="white" d="M 227.660156 196.15625 L 265.917969 73.613281 C 266.40625 72.210938 266.792969 71.859375 268.199219 71.859375 L 337.683594 71.859375 C 339.089844 71.859375 339.40625 72.210938 338.910156 73.613281 L 330.078125 101.621094 C 329.582031 103.023438 329.195312 103.375 327.792969 103.375 L 304.074219 103.375 C 302.667969 103.375 302.28125 103.722656 301.789062 105.125 L 297.917969 117.378906 C 297.425781 118.777344 297.742188 119.128906 299.148438 119.128906 L 321.972656 119.128906 C 323.378906 119.128906 323.691406 119.480469 323.199219 120.878906 L 314.917969 147.140625 C 314.425781 148.539062 314.039062 148.890625 312.636719 148.890625 L 289.660156 148.890625 C 288.257812 148.890625 287.871094 149.238281 287.378906 150.640625 L 282.992188 164.644531 C 282.5 166.046875 282.816406 166.394531 284.21875 166.394531 L 307.882812 166.394531 C 309.285156 166.394531 309.597656 166.746094 309.105469 168.148438 L 300.316406 196.15625 C 299.824219 197.554688 299.4375 197.90625 298.035156 197.90625 L 228.886719 197.90625 C 227.484375 197.90625 227.171875 197.554688 227.660156 196.15625 "/>
  <!-- A letter -->
  <path fill-rule="nonzero" fill="white" d="M 373.722656 133.132812 L 378.988281 133.132812 C 380.390625 133.132812 380.777344 132.78125 381.277344 131.382812 L 390.160156 103.375 C 390.65625 101.972656 390.34375 101.621094 388.9375 101.621094 L 383.667969 101.621094 C 382.261719 101.621094 381.871094 101.972656 381.375 103.375 L 372.5 131.382812 C 372.003906 132.78125 372.320312 133.132812 373.722656 133.132812 M 306.441406 196.15625 L 338.824219 93.394531 C 339.316406 91.992188 339.722656 91.46875 340.867188 90.59375 L 364.308594 72.910156 C 365.457031 72.035156 366.179688 71.863281 367.585938 71.863281 L 423.875 71.863281 C 425.28125 71.863281 425.773438 72.210938 426.539062 73.261719 L 438.636719 90.246094 C 439.40625 91.292969 439.507812 91.992188 439.007812 93.394531 L 406.234375 196.15625 C 405.734375 197.558594 405.351562 197.90625 403.949219 197.90625 L 361.933594 197.90625 C 360.535156 197.90625 360.21875 197.558594 360.714844 196.15625 L 368.503906 171.648438 C 369 170.246094 368.6875 169.898438 367.285156 169.898438 L 362.027344 169.898438 C 360.625 169.898438 360.238281 170.246094 359.742188 171.648438 L 351.960938 196.15625 C 351.464844 197.558594 351.078125 197.90625 349.679688 197.90625 L 307.664062 197.90625 C 306.265625 197.90625 305.949219 197.558594 306.441406 196.15625 "/>
  <!-- C letter -->
  <path fill-rule="nonzero" fill="white" d="M 430.878906 196.507812 L 420.105469 179.175781 C 419.339844 178.125 419.238281 177.425781 419.734375 176.023438 L 445.996094 93.746094 C 446.496094 92.34375 446.90625 91.820312 448.070312 90.769531 L 470.53125 73.085938 C 471.699219 72.039062 472.417969 71.863281 473.828125 71.863281 L 532.226562 71.863281 C 533.632812 71.863281 534.125 72.210938 534.886719 73.261719 L 545.820312 90.59375 C 546.585938 91.644531 546.683594 92.34375 546.175781 93.746094 L 536.136719 124.382812 C 535.632812 125.78125 535.242188 126.132812 533.835938 126.132812 L 491.707031 126.132812 C 490.304688 126.132812 489.988281 125.78125 490.492188 124.382812 L 497.332031 103.375 C 497.832031 101.972656 497.519531 101.621094 496.113281 101.621094 L 490.84375 101.621094 C 489.4375 101.621094 489.046875 101.972656 488.546875 103.375 L 468.25 166.394531 C 467.75 167.796875 468.0625 168.148438 469.464844 168.148438 L 474.722656 168.148438 C 476.125 168.148438 476.511719 167.796875 477.015625 166.394531 L 486.710938 136.636719 C 487.214844 135.234375 487.601562 134.882812 489.007812 134.882812 L 531.121094 134.882812 C 532.527344 134.882812 532.839844 135.234375 532.332031 136.636719 L 519.605469 176.023438 C 519.101562 177.425781 518.691406 177.949219 517.527344 179 L 494.933594 196.679688 C 493.773438 197.730469 493.050781 197.90625 491.652344 197.90625 L 433.53125 197.90625 C 432.128906 197.90625 431.640625 197.558594 430.878906 196.507812 "/>
  <!-- T letter -->
  <path fill-rule="nonzero" fill="white" d="M 644.425781 73.613281 L 635.820312 99.871094 C 635.308594 101.273438 634.917969 101.621094 633.511719 101.621094 L 616.820312 101.621094 C 615.414062 101.621094 615.023438 101.972656 614.515625 103.375 L 584.277344 196.15625 C 583.773438 197.554688 583.382812 197.90625 581.980469 197.90625 L 539.96875 197.90625 C 538.566406 197.90625 538.253906 197.554688 538.761719 196.15625 L 568.835938 103.375 C 569.34375 101.972656 569.03125 101.621094 567.625 101.621094 L 550.582031 101.621094 C 549.175781 101.621094 548.863281 101.273438 549.367188 99.871094 L 557.890625 73.613281 C 558.394531 72.210938 558.785156 71.863281 560.191406 71.863281 L 643.21875 71.863281 C 644.625 71.863281 644.9375 72.210938 644.425781 73.613281 "/>
  <!-- R letter (red) -->
  <path fill-rule="nonzero" fill="#FC0016" d="M 254.886719 82.949219 C 257.171875 74.894531 251.109375 66.894531 242.738281 66.917969 L 165.253906 67.136719 C 163.292969 67.144531 161.4375 68.023438 160.191406 69.535156 L 158.953125 71.035156 L 147.671875 85.230469 L 88.878906 158.734375 C 87.785156 160.105469 87.1875 161.804688 87.1875 163.558594 L 87.199219 194.324219 C 87.453125 197.03125 89.472656 197.679688 91.890625 197.875 L 123.183594 197.878906 C 124.941406 197.839844 126.597656 197.019531 127.695312 195.640625 L 163.53125 150.671875 C 167.019531 145.878906 174.808594 147.683594 175.34375 153.648438 C 176.382812 165.238281 172.523438 177.507812 179.929688 187.714844 C 182.996094 191.945312 187.300781 195.042969 192.292969 196.59375 C 197.351562 198.164062 202.710938 198.019531 207.945312 198.015625 C 208.671875 198.011719 209.402344 197.996094 210.121094 197.945312 C 213.40625 197.707031 216.429688 196.707031 217.488281 192.957031 C 217.882812 191.554688 218.242188 190.144531 218.625 188.738281 C 219.828125 184.316406 221.03125 179.890625 222.234375 175.464844 C 224.957031 165.457031 227.675781 155.449219 230.398438 145.4375 L 232.128906 139.128906 C 232.460938 137.925781 231.554688 136.742188 230.308594 136.738281 L 198.824219 136.71875 C 198.816406 136.714844 198.8125 136.714844 198.808594 136.714844 C 194.308594 136.058594 190.789062 132.59375 190.117188 128.082031 C 190.117188 128.078125 190.117188 128.070312 190.117188 128.066406 L 190.117188 125.683594 C 190.117188 125.636719 190.152344 125.601562 190.199219 125.601562 L 226.167969 125.472656 C 235.480469 125.441406 243.699219 119.453125 246.628906 110.617188 C 247.585938 107.730469 248.523438 104.617188 249.640625 101.417969 Z M 254.886719 82.949219 "/>
</svg>
