<svg version="1.1" id="Layer_1" xmlns="http://www.w3.org/2000/svg" xmlns:xlink="http://www.w3.org/1999/xlink" x="0px" y="0px"
	 width="100%" viewBox="0 0 4428 4320" enable-background="new 0 0 4428 4320" xml:space="preserve">
<path fill="#DC2626" opacity="1.000000" stroke="none" 
	d="
M2472.000000,4324.000000 
	C1648.093628,4324.000000 826.187378,4324.000000 4.140518,4324.000000 
	C4.140518,2884.257812 4.140518,1444.515625 4.140518,4.386681 
	C1479.573975,4.386681 2955.147949,4.386681 4431.361328,4.386681 
	C4431.361328,1443.999756 4431.361328,2883.999756 4431.361328,4324.000000 
	C3779.180420,4324.000000 3126.590088,4324.000000 2472.000000,4324.000000 
M1307.268921,2353.457031 
	C1350.035034,2299.798584 1392.792969,2246.133545 1435.585327,2192.496094 
	C1438.487305,2188.858643 1441.228027,2184.920654 1444.763184,2181.990234 
	C1458.852417,2170.311279 1479.603638,2176.134521 1485.441406,2193.508789 
	C1487.099243,2198.442383 1487.615601,2203.957520 1487.629395,2209.208496 
	C1487.671509,2225.194336 1486.812744,2241.187500 1487.069458,2257.165771 
	C1487.293701,2271.114258 1486.953125,2285.365234 1489.654297,2298.926270 
	C1498.200562,2341.833984 1533.126343,2371.672852 1578.242432,2375.466064 
	C1592.149292,2376.635254 1606.205811,2376.378418 1620.187744,2376.227051 
	C1646.035889,2375.947510 1652.428711,2370.760254 1659.284668,2345.557129 
	C1676.405762,2282.619385 1693.528931,2219.682129 1710.630493,2156.739258 
	C1717.572388,2131.189209 1717.547607,2131.234619 1691.277710,2131.110107 
	C1657.969604,2130.951904 1624.661255,2130.765625 1591.354980,2130.418213 
	C1586.067749,2130.363037 1580.690552,2129.861328 1575.529419,2128.753418 
	C1565.954468,2126.698730 1558.772827,2120.816162 1553.338257,2112.862549 
	C1548.333862,2105.538330 1545.225708,2097.743652 1549.135254,2087.665771 
	C1554.922241,2087.347168 1560.779419,2086.781738 1566.640015,2086.743164 
	C1595.954102,2086.549805 1625.270386,2086.622559 1654.583374,2086.337891 
	C1669.890869,2086.189453 1685.325317,2086.615723 1700.471313,2084.826172 
	C1735.325806,2080.708252 1759.170288,2061.417969 1771.974365,2028.824463 
	C1776.105591,2018.307983 1779.529541,2007.481812 1782.720093,1996.633667 
	C1790.795532,1969.175537 1799.122314,1941.770996 1806.275391,1914.067993 
	C1812.945679,1888.234863 1799.681152,1862.976196 1775.302490,1854.402588 
	C1767.982178,1851.828125 1759.644043,1851.271484 1751.772461,1851.273926 
	C1652.498901,1851.305054 1553.224609,1851.839600 1453.952271,1851.592773 
	C1439.003296,1851.555542 1428.743896,1856.971313 1420.067993,1868.541382 
	C1407.683594,1885.057373 1394.503540,1900.978149 1381.607788,1917.108765 
	C1303.817627,2014.411621 1226.158203,2111.819824 1148.032471,2208.852783 
	C1137.854858,2221.493652 1132.627930,2234.379395 1133.052368,2250.754639 
	C1133.880737,2282.714355 1133.292969,2314.710449 1133.305176,2346.691650 
	C1133.306641,2350.688721 1133.117432,2354.711426 1133.488770,2358.677979 
	C1134.499512,2369.476562 1139.055908,2374.245117 1149.603882,2375.617920 
	C1152.890137,2376.045654 1156.252563,2375.982666 1159.580078,2375.984619 
	C1196.891479,2376.007812 1234.205688,2375.744141 1271.512695,2376.150146 
	C1283.127441,2376.276611 1292.363281,2373.080322 1299.132324,2363.451660 
	C1301.043335,2360.733154 1303.303345,2358.260010 1307.268921,2353.457031 
M2488.506104,2131.111084 
	C2495.851074,2108.327393 2503.245117,2085.559326 2510.529541,2062.756348 
	C2521.051514,2029.818115 2531.225830,1996.765381 2542.135254,1963.956665 
	C2545.383789,1954.187866 2545.098145,1946.210693 2538.342285,1937.983521 
	C2531.176758,1929.257080 2525.117920,1919.625122 2518.514404,1910.432495 
	C2509.233643,1897.512817 2499.896484,1884.633545 2490.729736,1871.939819 
	C2486.424561,1871.578247 2483.151855,1871.065552 2479.878418,1871.063354 
	C2407.275391,1871.016235 2334.671875,1871.152954 2262.070068,1870.866211 
	C2252.776611,1870.829468 2245.540283,1873.788086 2238.360840,1879.301880 
	C2211.430420,1899.984375 2184.360840,1920.495605 2156.993896,1940.594727 
	C2147.942871,1947.242065 2142.513184,1955.280884 2139.308105,1966.072632 
	C2130.032959,1997.302124 2119.818115,2028.251831 2110.030762,2059.329834 
	C2078.269531,2160.179199 2046.516357,2261.031006 2014.856812,2361.912109 
	C2013.585815,2365.961914 2013.299561,2370.320801 2012.539917,2374.618896 
	C2033.589844,2376.954590 2175.804688,2376.659180 2192.890625,2374.172852 
	C2194.860596,2368.783203 2197.321289,2362.714111 2199.309570,2356.493896 
	C2207.610352,2330.526123 2215.682617,2304.485107 2224.056396,2278.541260 
	C2225.624512,2273.683838 2228.193115,2269.149658 2230.267334,2264.538818 
	C2241.154541,2263.930664 2250.842529,2262.631592 2261.566162,2265.813232 
	C2260.079346,2271.745361 2259.063965,2276.868896 2257.508301,2281.822998 
	C2249.539307,2307.200195 2241.265381,2332.482666 2233.506836,2357.923096 
	C2231.883545,2363.246582 2228.268555,2368.672363 2230.968506,2374.666016 
	C2250.528564,2376.890869 2392.705078,2376.680176 2408.700439,2374.459961 
	C2409.580078,2373.499756 2410.910889,2372.685059 2411.275146,2371.558105 
	C2436.814697,2292.464600 2462.277344,2213.345703 2488.506104,2131.111084 
M2738.040527,1871.016724 
	C2721.382812,1871.017090 2704.721680,1871.225952 2688.069092,1870.930176 
	C2679.680176,1870.781250 2672.892822,1873.048706 2666.175781,1878.511841 
	C2641.373291,1898.683105 2616.343750,1918.605957 2590.782959,1937.800537 
	C2579.040039,1946.618896 2571.872314,1957.133301 2567.508057,1971.244263 
	C2548.640869,2032.247803 2528.828125,2092.958984 2509.371094,2153.780518 
	C2495.792480,2196.227539 2482.405762,2238.737305 2468.532959,2281.087891 
	C2465.391113,2290.678955 2465.848145,2298.547119 2471.683350,2307.260010 
	C2484.270508,2326.054688 2496.038330,2345.419922 2507.571289,2364.889404 
	C2512.584229,2373.352783 2518.985596,2376.381348 2528.746582,2376.339600 
	C2602.036621,2376.025391 2675.330078,2375.989746 2748.619385,2376.384033 
	C2758.761475,2376.438721 2766.381592,2373.021729 2773.952393,2366.990723 
	C2799.480225,2346.654785 2825.126953,2326.458740 2851.066650,2306.652588 
	C2860.437744,2299.497314 2866.641602,2291.138672 2870.229248,2279.668701 
	C2884.723389,2233.330322 2900.031494,2187.246338 2914.938477,2141.036377 
	C2916.547607,2136.047363 2917.502197,2130.847168 2918.769531,2125.708252 
	C2903.724121,2122.886475 2758.634521,2122.489502 2737.691895,2125.245605 
	C2735.823486,2130.155029 2733.513428,2135.573242 2731.681396,2141.148438 
	C2720.882568,2174.011230 2710.296631,2206.944092 2699.370605,2239.764404 
	C2697.536377,2245.273926 2696.998291,2251.702637 2690.821777,2255.729492 
	C2681.596191,2256.404785 2671.835205,2257.157959 2660.972656,2254.890869 
	C2662.172607,2249.646973 2662.859131,2245.149902 2664.231201,2240.873047 
	C2689.627197,2161.703857 2715.076904,2082.552246 2740.644287,2003.438232 
	C2742.012695,1999.204224 2744.514404,1995.336548 2746.821289,1990.618042 
	C2755.406006,1990.618042 2763.345215,1990.505127 2771.276367,1990.703247 
	C2773.088867,1990.748535 2774.874023,1991.866577 2777.218994,1992.680786 
	C2775.715576,2009.013062 2768.098877,2023.326538 2764.037354,2038.611694 
	C2759.796875,2054.572021 2752.175537,2069.584961 2750.037354,2086.197998 
	C2765.130371,2088.912842 2911.011719,2089.259277 2931.152588,2086.555420 
	C2947.004395,2042.195312 2961.147461,1996.647583 2975.700439,1951.646606 
	C2958.633301,1923.981934 2942.268555,1897.451904 2924.617432,1871.016724 
	C2863.185059,1871.016724 2802.606201,1871.016724 2738.040527,1871.016724 
M1707.828979,2333.292236 
	C1704.663330,2343.452393 1701.358643,2353.572266 1698.409424,2363.794922 
	C1697.411621,2367.252930 1697.312744,2370.969971 1696.722168,2375.141357 
	C1700.698975,2375.579834 1703.302246,2376.121338 1705.904907,2376.117188 
	C1797.808838,2375.966797 1889.712646,2375.766357 1981.616455,2375.542236 
	C1982.227051,2375.540771 1982.869507,2375.174072 1983.437378,2374.867432 
	C1984.018555,2374.553711 1984.526245,2374.104004 1985.938599,2373.082764 
	C1986.622437,2371.550537 1987.929810,2369.247314 1988.711304,2366.777832 
	C2000.345459,2330.011475 2011.942017,2293.233643 2023.383301,2256.407227 
	C2023.879761,2254.808838 2022.796631,2252.719971 2022.200562,2249.526123 
	C2015.510010,2249.410400 2008.935547,2249.209961 2002.360718,2249.198242 
	C1978.381836,2249.155273 1954.402466,2249.242432 1930.424316,2249.099854 
	C1926.788452,2249.078125 1923.158447,2248.099365 1917.873169,2247.319580 
	C1921.523682,2235.087646 1924.319824,2224.218750 1928.037231,2213.674561 
	C1931.953979,2202.564697 1932.890747,2190.213623 1941.651978,2179.534180 
	C1974.954102,2179.534180 2008.811523,2179.534180 2042.714844,2179.534180 
	C2044.851807,2174.960938 2046.921143,2171.536377 2048.111084,2167.829590 
	C2058.476807,2135.539307 2068.739258,2103.215088 2078.845703,2070.842773 
	C2079.748291,2067.951172 2079.331787,2064.647949 2079.625488,2059.990723 
	C2067.312988,2059.990723 2056.056396,2059.990967 2044.799805,2059.990967 
	C2034.142456,2059.990967 2023.480713,2060.185547 2012.829102,2059.937012 
	C2001.781616,2059.679443 1990.597534,2061.084717 1979.649048,2058.873779 
	C1981.411499,2039.728516 1991.127441,2010.251099 2000.240723,1996.983276 
	C2011.234985,1996.983276 2023.160156,1996.983276 2035.085449,1996.983276 
	C2046.408813,1996.983276 2057.742920,1997.290283 2069.052734,1996.898926 
	C2080.878174,1996.489746 2092.903320,1998.834473 2105.105225,1995.039062 
	C2106.538574,1991.246948 2108.100586,1987.629028 2109.288574,1983.892090 
	C2120.166504,1949.672363 2131.019287,1915.444214 2141.737305,1881.174194 
	C2142.610596,1878.381470 2142.433838,1875.260254 2142.790039,1871.862427 
	C2138.720947,1871.494873 2136.107422,1871.053711 2133.493896,1871.052612 
	C2043.572754,1871.016724 1953.651733,1871.001587 1863.730713,1871.094971 
	C1859.909058,1871.098999 1856.088501,1872.163696 1852.365845,1872.719604 
	C1850.673340,1877.225342 1849.097046,1880.881836 1847.911499,1884.660645 
	C1834.574219,1927.170166 1821.300415,1969.699463 1808.003174,2012.221558 
	C1774.858887,2118.209473 1741.711426,2224.196533 1707.828979,2333.292236 
M3161.736816,2260.542969 
	C3176.370361,2215.658936 3190.802246,2170.708008 3205.694580,2125.909912 
	C3220.535889,2081.265381 3234.013916,2036.148682 3250.241211,1991.380981 
	C3257.263672,1991.041138 3263.159912,1990.552368 3269.059082,1990.509521 
	C3285.045654,1990.393433 3301.035645,1990.627808 3317.020020,1990.414429 
	C3329.869873,1990.243042 3331.062744,1989.362183 3335.285889,1976.626465 
	C3345.959717,1944.436401 3356.468994,1912.191284 3366.906006,1879.923584 
	C3367.640869,1877.651367 3367.249023,1875.014526 3367.364014,1872.866089 
	C3365.105225,1872.057739 3363.905762,1871.253784 3362.705322,1871.252441 
	C3254.793213,1871.132080 3146.881348,1871.069336 3038.969238,1871.026855 
	C3034.978516,1871.025269 3030.986572,1871.232056 3026.998779,1871.421997 
	C3026.378662,1871.451416 3025.765137,1871.884644 3025.174072,1872.182129 
	C3024.587891,1872.476929 3024.034180,1872.836182 3021.950195,1874.051147 
	C3018.137451,1885.303589 3013.838135,1897.806885 3009.666748,1910.352783 
	C3005.260498,1923.604370 3000.510010,1936.767090 2996.774902,1950.209106 
	C2993.304443,1962.699585 2987.225342,1974.575806 2985.926758,1988.770752 
	C2990.921631,1989.443481 2994.715576,1990.363281 2998.517578,1990.396973 
	C3016.501953,1990.555664 3034.489258,1990.380493 3052.473389,1990.549683 
	C3056.187256,1990.584595 3059.891846,1991.580078 3064.486328,1992.264771 
	C3063.641357,1996.606812 3063.334961,1999.882812 3062.353027,2002.941895 
	C3056.866943,2020.035400 3051.160645,2037.058105 3045.632568,2054.138428 
	C3012.665771,2156.001465 2979.725342,2257.873535 2946.785400,2359.745117 
	C2945.210938,2364.614746 2941.931885,2369.328613 2946.027344,2376.185303 
	C3004.352539,2376.145996 3063.464355,2376.259277 3123.694824,2376.096436 
	C3136.962891,2338.158203 3148.670410,2300.792725 3161.736816,2260.542969 
z"/>
<path fill="#FA0016" opacity="1.000000" stroke="none" 
	d="
M1306.336182,2354.565674 
	C1303.303345,2358.260010 1301.043335,2360.733154 1299.132324,2363.451660 
	C1292.363281,2373.080322 1283.127441,2376.276611 1271.512695,2376.150146 
	C1234.205688,2375.744141 1196.891479,2376.007812 1159.580078,2375.984619 
	C1156.252563,2375.982666 1152.890137,2376.045654 1149.603882,2375.617920 
	C1139.055908,2374.245117 1134.499512,2369.476562 1133.488770,2358.677979 
	C1133.117432,2354.711426 1133.306641,2350.688721 1133.305176,2346.691650 
	C1133.292969,2314.710449 1133.880737,2282.714355 1133.052368,2250.754639 
	C1132.627930,2234.379395 1137.854858,2221.493652 1148.032471,2208.852783 
	C1226.158203,2111.819824 1303.817627,2014.411621 1381.607788,1917.108765 
	C1394.503540,1900.978149 1407.683594,1885.057373 1420.067993,1868.541382 
	C1428.743896,1856.971313 1439.003296,1851.555542 1453.952271,1851.592773 
	C1553.224609,1851.839600 1652.498901,1851.305054 1751.772461,1851.273926 
	C1759.644043,1851.271484 1767.982178,1851.828125 1775.302490,1854.402588 
	C1799.681152,1862.976196 1812.945679,1888.234863 1806.275391,1914.067993 
	C1799.122314,1941.770996 1790.795532,1969.175537 1782.720093,1996.633667 
	C1779.529541,2007.481812 1776.105591,2018.307983 1771.974365,2028.824463 
	C1759.170288,2061.417969 1735.325806,2080.708252 1700.471313,2084.826172 
	C1685.325317,2086.615723 1669.890869,2086.189453 1654.583374,2086.337891 
	C1625.270386,2086.622559 1595.954102,2086.549805 1566.640015,2086.743164 
	C1560.779419,2086.781738 1554.922241,2087.347168 1549.135254,2087.665771 
	C1545.225708,2097.743652 1548.333862,2105.538330 1553.338257,2112.862549 
	C1558.772827,2120.816162 1565.954468,2126.698730 1575.529419,2128.753418 
	C1580.690552,2129.861328 1586.067749,2130.363037 1591.354980,2130.418213 
	C1624.661255,2130.765625 1657.969604,2130.951904 1691.277710,2131.110107 
	C1717.547607,2131.234619 1717.572388,2131.189209 1710.630493,2156.739258 
	C1693.528931,2219.682129 1676.405762,2282.619385 1659.284668,2345.557129 
	C1652.428711,2370.760254 1646.035889,2375.947510 1620.187744,2376.227051 
	C1606.205811,2376.378418 1592.149292,2376.635254 1578.242432,2375.466064 
	C1533.126343,2371.672852 1498.200562,2341.833984 1489.654297,2298.926270 
	C1486.953125,2285.365234 1487.293701,2271.114258 1487.069458,2257.165771 
	C1486.812744,2241.187500 1487.671509,2225.194336 1487.629395,2209.208496 
	C1487.615601,2203.957520 1487.099243,2198.442383 1485.441406,2193.508789 
	C1479.603638,2176.134521 1458.852417,2170.311279 1444.763184,2181.990234 
	C1441.228027,2184.920654 1438.487305,2188.858643 1435.585327,2192.496094 
	C1392.792969,2246.133545 1350.035034,2299.798584 1306.336182,2354.565674 
z"/>
	d="
M2488.126221,2132.670166 
	C2462.277344,2213.345703 2436.814697,2292.464600 2411.275146,2371.558105 
	C2410.910889,2372.685059 2409.580078,2373.499756 2408.699463,2374.458984 
	C2392.705078,2376.680176 2250.528564,2376.890869 2230.968506,2374.666016 
	C2228.268555,2368.672363 2231.883545,2363.246582 2233.506836,2357.923096 
	C2241.265381,2332.482666 2249.539307,2307.200195 2257.508301,2281.822998 
	C2259.063965,2276.868896 2260.079346,2271.745361 2261.566162,2265.813232 
	C2250.842529,2262.631592 2241.154541,2263.930664 2230.267334,2264.538818 
	C2228.193115,2269.149658 2225.624512,2273.683838 2224.056396,2278.541260 
	C2215.682617,2304.485107 2207.610352,2330.526123 2199.309570,2356.493896 
	C2197.321289,2362.714111 2194.860596,2368.783203 2192.890625,2374.172852 
	C2175.804688,2376.659180 2033.589844,2376.954590 2012.539917,2374.618896 
	C2013.299561,2370.320801 2013.585815,2365.961914 2014.856812,2361.912109 
	C2046.516357,2261.031006 2078.269531,2160.179199 2110.030762,2059.329834 
	C2119.818115,2028.251831 2130.032959,1997.302124 2139.308105,1966.072632 
	C2142.513184,1955.280884 2147.942871,1947.242065 2156.993896,1940.594727 
	C2184.360840,1920.495605 2211.430420,1899.984375 2238.360840,1879.301880 
	C2245.540283,1873.788086 2252.776611,1870.829468 2262.070068,1870.866211 
	C2334.671875,1871.152954 2407.275391,1871.016235 2479.878418,1871.063354 
	C2483.151855,1871.065552 2486.424561,1871.578247 2490.729736,1871.939819 
	C2499.896484,1884.633545 2509.233643,1897.512817 2518.514404,1910.432495 
	C2525.117920,1919.625122 2531.176758,1929.257080 2538.342285,1937.983521 
	C2545.098145,1946.210693 2545.383789,1954.187866 2542.135254,1963.956665 
	C2531.225830,1996.765381 2521.051514,2029.818115 2510.529541,2062.756348 
	C2503.245117,2085.559326 2495.851074,2108.327393 2488.126221,2132.670166 
M2316.684082,2095.312988 
	C2327.101318,2061.708252 2337.523926,2028.104858 2347.881836,1994.481812 
	C2348.025879,1994.014038 2347.360840,1993.296997 2346.580566,1991.666382 
	C2336.830811,1989.692017 2326.588379,1989.693726 2315.054932,1992.125122 
	C2301.714844,2032.494873 2288.869385,2072.861328 2276.402588,2114.118652 
	C2287.846680,2117.395996 2298.169189,2116.381836 2309.381104,2115.137939 
	C2311.628906,2109.370361 2313.760254,2103.900879 2316.684082,2095.312988 
z"/>
	d="
M2740.033936,1871.016724 
	C2802.606201,1871.016724 2863.185059,1871.016724 2924.617432,1871.016724 
	C2942.268555,1897.451904 2958.633301,1923.981934 2975.700439,1951.646606 
	C2961.147461,1996.647583 2947.004395,2042.195312 2931.152588,2086.555420 
	C2911.011719,2089.259277 2765.130371,2088.912842 2750.037354,2086.197998 
	C2752.175537,2069.584961 2759.796875,2054.572021 2764.037354,2038.611694 
	C2768.098877,2023.326538 2775.715576,2009.013062 2777.218994,1992.680786 
	C2774.874023,1991.866577 2773.088867,1990.748535 2771.276367,1990.703247 
	C2763.345215,1990.505127 2755.406006,1990.618042 2746.821289,1990.618042 
	C2744.514404,1995.336548 2742.012695,1999.204224 2740.644287,2003.438232 
	C2715.076904,2082.552246 2689.627197,2161.703857 2664.231201,2240.873047 
	C2662.859131,2245.149902 2662.172607,2249.646973 2660.972656,2254.890869 
	C2671.835205,2257.157959 2681.596191,2256.404785 2690.821777,2255.729492 
	C2696.998291,2251.702637 2697.536377,2245.273926 2699.370605,2239.764404 
	C2710.296631,2206.944092 2720.882568,2174.011230 2731.681396,2141.148438 
	C2733.513428,2135.573242 2735.823486,2130.155029 2737.691895,2125.245605 
	C2758.634521,2122.489502 2903.724121,2122.886475 2918.769531,2125.708252 
	C2917.502197,2130.847168 2916.547607,2136.047363 2914.938477,2141.036377 
	C2900.031494,2187.246338 2884.723389,2233.330322 2870.229248,2279.668701 
	C2866.641602,2291.138672 2860.437744,2299.497314 2851.066650,2306.652588 
	C2825.126953,2326.458740 2799.480225,2346.654785 2773.952393,2366.990723 
	C2766.381592,2373.021729 2758.761475,2376.438721 2748.619385,2376.384033 
	C2675.330078,2375.989746 2602.036621,2376.025391 2528.746582,2376.339600 
	C2518.985596,2376.381348 2512.584229,2373.352783 2507.571289,2364.889404 
	C2496.038330,2345.419922 2484.270508,2326.054688 2471.683350,2307.260010 
	C2465.848145,2298.547119 2465.391113,2290.678955 2468.532959,2281.087891 
	C2482.405762,2238.737305 2495.792480,2196.227539 2509.371094,2153.780518 
	C2528.828125,2092.958984 2548.640869,2032.247803 2567.508057,1971.244263 
	C2571.872314,1957.133301 2579.040039,1946.618896 2590.782959,1937.800537 
	C2616.343750,1918.605957 2641.373291,1898.683105 2666.175781,1878.511841 
	C2672.892822,1873.048706 2679.680176,1870.781250 2688.069092,1870.930176 
	C2704.721680,1871.225952 2721.382812,1871.017090 2740.033936,1871.016724 
z"/>
	d="
M1708.197144,2331.738037 
	C1741.711426,2224.196533 1774.858887,2118.209473 1808.003174,2012.221558 
	C1821.300415,1969.699463 1834.574219,1927.170166 1847.911499,1884.660645 
	C1849.097046,1880.881836 1850.673340,1877.225342 1852.365845,1872.719604 
	C1856.088501,1872.163696 1859.909058,1871.098999 1863.730713,1871.094971 
	C1953.651733,1871.001587 2043.572754,1871.016724 2133.493896,1871.052612 
	C2136.107422,1871.053711 2138.720947,1871.494873 2142.790039,1871.862427 
	C2142.433838,1875.260254 2142.610596,1878.381470 2141.737305,1881.174194 
	C2131.019287,1915.444214 2120.166504,1949.672363 2109.288574,1983.892090 
	C2108.100586,1987.629028 2106.538574,1991.246948 2105.105225,1995.039062 
	C2092.903320,1998.834473 2080.878174,1996.489746 2069.052734,1996.898926 
	C2057.742920,1997.290283 2046.408813,1996.983276 2035.085449,1996.983276 
	C2023.160156,1996.983276 2011.234985,1996.983276 2000.240723,1996.983276 
	C1991.127441,2010.251099 1981.411499,2039.728516 1979.649048,2058.873779 
	C1990.597534,2061.084717 2001.781616,2059.679443 2012.829102,2059.937012 
	C2023.480713,2060.185547 2034.142456,2059.990967 2044.799805,2059.990967 
	C2056.056396,2059.990967 2067.312988,2059.990723 2079.625488,2059.990723 
	C2079.331787,2064.647949 2079.748291,2067.951172 2078.845703,2070.842773 
	C2068.739258,2103.215088 2058.476807,2135.539307 2048.111084,2167.829590 
	C2046.921143,2171.536377 2044.851807,2174.960938 2042.714844,2179.534180 
	C2008.811523,2179.534180 1974.954102,2179.534180 1941.651978,2179.534180 
	C1932.890747,2190.213623 1931.953979,2202.564697 1928.037231,2213.674561 
	C1924.319824,2224.218750 1921.523682,2235.087646 1917.873169,2247.319580 
	C1923.158447,2248.099365 1926.788452,2249.078125 1930.424316,2249.099854 
	C1954.402466,2249.242432 1978.381836,2249.155273 2002.360718,2249.198242 
	C2008.935547,2249.209961 2015.510010,2249.410400 2022.200562,2249.526123 
	C2022.796631,2252.719971 2023.879761,2254.808838 2023.383301,2256.407227 
	C2011.942017,2293.233643 2000.345459,2330.011475 1988.711304,2366.777832 
	C1987.929810,2369.247314 1986.622437,2371.550537 1985.938599,2373.082764 
	C1984.526245,2374.104004 1984.018555,2374.553711 1983.437378,2374.867432 
	C1982.869507,2375.174072 1982.227051,2375.540771 1981.616455,2375.542236 
	C1889.712646,2375.766357 1797.808838,2375.966797 1705.904907,2376.117188 
	C1703.302246,2376.121338 1700.698975,2375.579834 1696.722168,2375.141357 
	C1697.312744,2370.969971 1697.411621,2367.252930 1698.409424,2363.794922 
	C1701.358643,2353.572266 1704.663330,2343.452393 1708.197144,2331.738037 
z"/>
	d="
M3161.217773,2262.040039 
	C3148.670410,2300.792725 3136.962891,2338.158203 3123.694824,2376.096436 
	C3063.464355,2376.259277 3004.352539,2376.145996 2946.027344,2376.185303 
	C2941.931885,2369.328613 2945.210938,2364.614746 2946.785400,2359.745117 
	C2979.725342,2257.873535 3012.665771,2156.001465 3045.632568,2054.138428 
	C3051.160645,2037.058105 3056.866943,2020.035400 3062.353027,2002.941895 
	C3063.334961,1999.882812 3063.641357,1996.606812 3064.486328,1992.264771 
	C3059.891846,1991.580078 3056.187256,1990.584595 3052.473389,1990.549683 
	C3034.489258,1990.380493 3016.501953,1990.555664 2998.517578,1990.396973 
	C2994.715576,1990.363281 2990.921631,1989.443481 2985.926758,1988.770752 
	C2987.225342,1974.575806 2993.304443,1962.699585 2996.774902,1950.209106 
	C3000.510010,1936.767090 3005.260498,1923.604370 3009.666748,1910.352783 
	C3013.838135,1897.806885 3018.137451,1885.303589 3021.950195,1874.051147 
	C3024.034180,1872.836182 3024.587891,1872.476929 3025.174072,1872.182129 
	C3025.765137,1871.884644 3026.378662,1871.451416 3026.998779,1871.421997 
	C3030.986572,1871.232056 3034.978516,1871.025269 3038.969238,1871.026855 
	C3146.881348,1871.069336 3254.793213,1871.132080 3362.705322,1871.252441 
	C3363.905762,1871.253784 3365.105225,1872.057739 3367.364014,1872.866089 
	C3367.249023,1875.014526 3367.640869,1877.651367 3366.906006,1879.923584 
	C3356.468994,1912.191284 3345.959717,1944.436401 3335.285889,1976.626465 
	C3331.062744,1989.362183 3329.869873,1990.243042 3317.020020,1990.414429 
	C3301.035645,1990.627808 3285.045654,1990.393433 3269.059082,1990.509521 
	C3263.159912,1990.552368 3257.263672,1991.041138 3250.241211,1991.380981 
	C3234.013916,2036.148682 3220.535889,2081.265381 3205.694580,2125.909912 
	C3190.802246,2170.708008 3176.370361,2215.658936 3161.217773,2262.040039 
z"/>
<path fill="#DC2626" opacity="1.000000" stroke="none" 
	d="
M2316.287842,2096.872314 
	C2313.760254,2103.900879 2311.628906,2109.370361 2309.381104,2115.137939 
	C2298.169189,2116.381836 2287.846680,2117.395996 2276.402588,2114.118652 
	C2288.869385,2072.861328 2301.714844,2032.494873 2315.054932,1992.125122 
	C2326.588379,1989.693726 2336.830811,1989.692017 2346.580566,1991.666382 
	C2347.360840,1993.296997 2348.025879,1994.014038 2347.881836,1994.481812 
	C2337.523926,2028.104858 2327.101318,2061.708252 2316.287842,2096.872314 
z"/>
</svg>