<svg version="1.1" id="Layer_1" xmlns="http://www.w3.org/2000/svg" xmlns:xlink="http://www.w3.org/1999/xlink" x="0px" y="0px"
	 width="100%" viewBox="0 0 506 493" enable-background="new 0 0 506 493" xml:space="preserve">
<path fill="#1F1F1F" opacity="1.000000" stroke="none" 
	d="
M281.000000,494.000000 
	C187.333359,494.000000 94.166710,494.000000 1.000050,494.000000 
	C1.000033,329.666718 1.000033,165.333450 1.000017,1.000138 
	C169.666565,1.000092 338.333130,1.000092 506.999756,1.000046 
	C506.999847,165.333191 506.999847,329.666382 506.999939,493.999786 
	C431.833344,494.000000 356.666656,494.000000 281.000000,494.000000 
M257.930298,214.018936 
	C266.620850,214.018158 275.311401,214.017380 284.076447,214.726227 
	C286.069000,218.742233 289.974792,222.222626 288.332672,227.336044 
	C284.771088,238.426559 280.981537,249.443741 277.369263,260.518311 
	C276.810150,262.232513 276.695770,264.091766 276.308044,266.262878 
	C278.913757,265.161407 280.693054,264.409271 282.241241,263.754822 
	C286.422821,250.543320 290.653015,237.178116 294.552094,224.859192 
	C292.925018,223.253220 291.842957,222.316101 290.916107,221.244705 
	C288.569092,218.531601 286.291718,215.758209 283.051910,212.998611 
	C277.905762,212.994003 272.755554,212.862793 267.614899,213.028366 
	C264.063263,213.142731 260.524811,213.667114 256.697784,214.111343 
	C256.795837,214.080658 256.893921,214.049957 257.930298,214.018936 
M334.054382,214.652573 
	C334.613495,215.366180 335.172577,216.079803 335.731689,216.793411 
	C336.019440,216.482971 336.307220,216.172531 336.595001,215.862106 
	C335.740204,215.243408 334.885437,214.624695 333.446838,213.398727 
	C324.685608,213.398727 315.924377,213.398727 307.163147,213.398727 
	C307.163818,213.609329 307.164459,213.819931 307.165131,214.030533 
	C316.111969,214.030533 325.058777,214.030533 334.054382,214.652573 
M243.223541,215.497406 
	C243.154175,224.045395 239.747772,227.729782 231.843643,228.044128 
	C230.383896,228.102188 228.949219,228.791290 227.502975,229.189133 
	C227.612213,229.356995 227.721466,229.524857 227.830704,229.692719 
	C232.396225,229.692719 236.961746,229.692719 241.895004,229.692719 
	C241.197006,232.949234 240.824280,235.724503 236.278336,234.349091 
	C233.218933,233.423431 229.922073,233.211563 226.709457,232.950211 
	C226.291473,232.916214 225.742172,234.496201 224.765930,236.159790 
	C229.350311,236.159790 232.929474,236.159790 237.443268,236.159790 
	C235.971130,241.095291 234.716812,245.300537 233.462494,249.505783 
	C233.910736,249.849716 234.358963,250.193665 234.807205,250.537598 
	C235.873260,249.444794 237.402847,248.534576 237.918732,247.225052 
	C239.485901,243.246857 240.480087,239.043884 242.029785,235.057648 
	C244.629318,228.370911 246.369736,221.568649 245.741608,214.344849 
	C245.698639,213.850723 244.601105,213.448303 243.057892,213.003204 
	C233.097488,213.003204 223.137085,213.003204 213.176666,213.003204 
	C213.179886,213.614563 213.183090,214.225906 213.186295,214.837265 
	C223.117905,214.837265 233.049500,214.837265 243.223541,215.497406 
M204.347076,226.095810 
	C204.740234,224.824234 205.157074,223.559433 205.522720,222.279999 
	C207.854355,214.121307 205.910233,211.541351 197.415924,211.561188 
	C187.763718,211.583740 178.109680,211.756165 168.460495,211.604401 
	C165.114365,211.551758 162.932007,212.699142 160.884003,215.310959 
	C151.645844,227.092422 142.071579,238.613434 132.986481,250.509384 
	C131.054352,253.039307 129.828033,256.712952 129.707840,259.913422 
	C129.273788,271.472198 129.508133,271.311707 141.064346,271.569366 
	C145.442108,271.666962 148.542908,270.601410 151.177841,266.859802 
	C155.098145,261.292847 159.523682,256.067841 163.956024,250.887115 
	C164.838211,249.856003 166.804886,249.117737 168.106140,249.318115 
	C168.887512,249.438446 169.725616,251.595657 169.872543,252.911758 
	C170.147675,255.376038 169.787384,257.904816 169.959122,260.388275 
	C170.538681,268.768982 179.377762,274.318817 187.108109,271.129364 
	C188.037140,270.746033 189.055344,269.690002 189.327560,268.743195 
	C191.657166,260.640747 193.824219,252.491547 196.288818,243.442337 
	C192.100418,243.442337 188.678741,243.543457 185.265915,243.412979 
	C182.051315,243.290085 178.018051,244.498718 177.024124,238.475327 
	C181.119217,238.475327 184.869965,238.479630 188.620712,238.474503 
	C199.260864,238.459961 200.967850,237.180405 204.347076,226.095810 
M260.159912,236.972046 
	C260.880890,238.638428 261.601868,240.304810 262.322876,241.971176 
	C263.878693,240.438538 265.591583,239.028122 266.921173,237.319443 
	C267.545197,236.517487 267.187683,235.014572 267.691223,234.045654 
	C270.472656,228.693954 270.362671,228.320709 264.074493,226.222427 
	C262.866638,229.542633 261.656067,232.870316 260.159912,236.972046 
M267.351837,270.002441 
	C263.431213,269.630066 259.510620,269.257721 254.597382,268.791077 
	C253.568054,270.305908 253.707596,272.633240 257.591705,272.898102 
	C262.687653,273.245605 267.847534,273.239349 272.932007,272.813263 
	C274.443939,272.686554 275.794800,270.637390 277.219452,269.469116 
	C276.907776,269.273926 276.596069,269.078735 276.284393,268.883514 
	C273.615631,269.256500 270.946899,269.629456 267.351837,270.002441 
M351.802917,214.024384 
	C362.202240,214.024384 372.601532,214.024384 383.000854,214.024384 
	C382.997498,213.774521 382.994141,213.524643 382.990784,213.274780 
	C371.008270,213.274780 359.025757,213.274780 347.043243,213.274780 
	C347.038635,213.462402 347.034058,213.650024 347.029449,213.837646 
	C348.321533,213.899323 349.613586,213.960983 351.802917,214.024384 
M210.500183,272.045685 
	C215.626282,272.045685 220.752365,272.045685 225.878464,272.045685 
	C225.866516,271.798157 225.854568,271.550629 225.842621,271.303101 
	C215.604980,271.303101 205.367340,271.303101 195.129700,271.303101 
	C195.129150,271.550659 195.128586,271.798248 195.128036,272.045807 
	C199.919952,272.045807 204.711853,272.045807 210.500183,272.045685 
M296.576660,270.954315 
	C293.758667,270.954315 290.940674,270.954315 288.122711,270.954315 
	C288.132233,271.203918 288.141785,271.453522 288.151306,271.703125 
	C297.064331,271.703125 305.977356,271.703125 314.890381,271.703125 
	C314.890869,271.453491 314.891327,271.203827 314.891815,270.954193 
	C309.112305,270.954193 303.332764,270.954193 296.576660,270.954315 
M303.643738,216.470520 
	C299.670685,215.766571 298.205231,218.681229 296.259003,220.902130 
	C296.529907,221.283539 296.800812,221.664932 297.071716,222.046341 
	C299.160034,220.381424 301.248352,218.716507 303.643738,216.470520 
M248.352234,219.570374 
	C248.868347,219.837585 249.384476,220.104797 249.900604,220.371994 
	C250.127945,219.833435 250.355286,219.294876 250.582642,218.756302 
	C249.930954,218.852097 249.279251,218.947891 248.352234,219.570374 
M253.092819,215.594467 
	C252.992233,216.248444 252.891647,216.902435 252.791077,217.556427 
	C253.331497,217.330994 253.871918,217.105560 254.412354,216.880112 
	C254.149139,216.360596 253.885910,215.841080 253.092819,215.594467 
M211.517883,215.401291 
	C211.517883,215.401291 211.590576,215.520767 211.517883,215.401291 
z"/>
<path fill="#F8071A" opacity="1.000000" stroke="none" 
	d="
M204.240997,226.477692 
	C200.967850,237.180405 199.260864,238.459961 188.620712,238.474503 
	C184.869965,238.479630 181.119217,238.475327 177.024124,238.475327 
	C178.018051,244.498718 182.051315,243.290085 185.265915,243.412979 
	C188.678741,243.543457 192.100418,243.442337 196.288818,243.442337 
	C193.824219,252.491547 191.657166,260.640747 189.327560,268.743195 
	C189.055344,269.690002 188.037140,270.746033 187.108109,271.129364 
	C179.377762,274.318817 170.538681,268.768982 169.959122,260.388275 
	C169.787384,257.904816 170.147675,255.376038 169.872543,252.911758 
	C169.725616,251.595657 168.887512,249.438446 168.106140,249.318115 
	C166.804886,249.117737 164.838211,249.856003 163.956024,250.887115 
	C159.523682,256.067841 155.098145,261.292847 151.177841,266.859802 
	C148.542908,270.601410 145.442108,271.666962 141.064346,271.569366 
	C129.508133,271.311707 129.273788,271.472198 129.707840,259.913422 
	C129.828033,256.712952 131.054352,253.039307 132.986481,250.509384 
	C142.071579,238.613434 151.645844,227.092422 160.884003,215.310959 
	C162.932007,212.699142 165.114365,211.551758 168.460495,211.604401 
	C178.109680,211.756165 187.763718,211.583740 197.415924,211.561188 
	C205.910233,211.541351 207.854355,214.121307 205.522720,222.279999 
	C205.157074,223.559433 204.740234,224.824234 204.240997,226.477692 
z"/>
<path fill="#2A2A2A" opacity="1.000000" stroke="none" 
	d="
M283.986450,213.008957 
	C286.291718,215.758209 288.569092,218.531601 290.916107,221.244705 
	C291.842957,222.316101 292.925018,223.253220 294.552094,224.859192 
	C290.653015,237.178116 286.422821,250.543320 282.241241,263.754822 
	C280.693054,264.409271 278.913757,265.161407 276.308044,266.262878 
	C276.695770,264.091766 276.810150,262.232513 277.369263,260.518311 
	C280.981537,249.443741 284.771088,238.426559 288.332672,227.336044 
	C289.974792,222.222626 286.069000,218.742233 284.039001,214.119354 
	C283.996552,213.344650 283.991516,213.176804 283.986450,213.008957 
z"/>
<path fill="#2A2A2A" opacity="1.000000" stroke="none" 
	d="
M243.993988,213.003235 
	C244.601105,213.448303 245.698639,213.850723 245.741608,214.344849 
	C246.369736,221.568649 244.629318,228.370911 242.029785,235.057648 
	C240.480087,239.043884 239.485901,243.246857 237.918732,247.225052 
	C237.402847,248.534576 235.873260,249.444794 234.807205,250.537598 
	C234.358963,250.193665 233.910736,249.849716 233.462494,249.505783 
	C234.716812,245.300537 235.971130,241.095291 237.443268,236.159790 
	C232.929474,236.159790 229.350311,236.159790 224.765930,236.159790 
	C225.742172,234.496201 226.291473,232.916214 226.709457,232.950211 
	C229.922073,233.211563 233.218933,233.423431 236.278336,234.349091 
	C240.824280,235.724503 241.197006,232.949234 241.895004,229.692719 
	C236.961746,229.692719 232.396225,229.692719 227.830704,229.692719 
	C227.721466,229.524857 227.612213,229.356995 227.502975,229.189133 
	C228.949219,228.791290 230.383896,228.102188 231.843643,228.044128 
	C239.747772,227.729782 243.154175,224.045395 243.217377,214.933868 
	C243.472137,213.914642 243.733063,213.458939 243.993988,213.003235 
z"/>
<path fill="#2A2A2A" opacity="1.000000" stroke="none" 
	d="
M260.302704,236.585022 
	C261.656067,232.870316 262.866638,229.542633 264.074493,226.222427 
	C270.362671,228.320709 270.472656,228.693954 267.691223,234.045654 
	C267.187683,235.014572 267.545197,236.517487 266.921173,237.319443 
	C265.591583,239.028122 263.878693,240.438538 262.322876,241.971191 
	C261.601868,240.304810 260.880890,238.638428 260.302704,236.585022 
z"/>
<path fill="#2A2A2A" opacity="1.000000" stroke="none" 
	d="
M267.815002,270.002441 
	C270.946899,269.629456 273.615631,269.256500 276.284393,268.883514 
	C276.596069,269.078735 276.907776,269.273926 277.219452,269.469116 
	C275.794800,270.637390 274.443939,272.686554 272.932007,272.813263 
	C267.847534,273.239349 262.687653,273.245605 257.591705,272.898102 
	C253.707596,272.633240 253.568054,270.305908 254.597382,268.791077 
	C259.510620,269.257721 263.431213,269.630066 267.815002,270.002441 
z"/>
<path fill="#3A3A3A" opacity="1.000000" stroke="none" 
	d="
M351.354279,214.023529 
	C349.613586,213.960983 348.321533,213.899323 347.029449,213.837646 
	C347.034058,213.650024 347.038635,213.462402 347.043243,213.274780 
	C359.025757,213.274780 371.008270,213.274780 382.990784,213.274780 
	C382.994141,213.524643 382.997498,213.774521 383.000854,214.024384 
	C372.601532,214.024384 362.202240,214.024384 351.354279,214.023529 
z"/>
<path fill="#3A3A3A" opacity="1.000000" stroke="none" 
	d="
M243.525940,213.003220 
	C243.733063,213.458939 243.472137,213.914642 243.096161,214.603790 
	C233.049500,214.837265 223.117905,214.837265 213.186295,214.837265 
	C213.183090,214.225906 213.179886,213.614563 213.176666,213.003204 
	C223.137085,213.003204 233.097488,213.003204 243.525940,213.003220 
z"/>
<path fill="#3A3A3A" opacity="1.000000" stroke="none" 
	d="
M210.001984,272.045746 
	C204.711853,272.045807 199.919952,272.045807 195.128036,272.045807 
	C195.128586,271.798248 195.129150,271.550659 195.129700,271.303101 
	C205.367340,271.303101 215.604980,271.303101 225.842621,271.303101 
	C225.854568,271.550629 225.866516,271.798157 225.878464,272.045685 
	C220.752365,272.045685 215.626282,272.045685 210.001984,272.045746 
z"/>
<path fill="#3A3A3A" opacity="1.000000" stroke="none" 
	d="
M297.064941,270.954254 
	C303.332764,270.954193 309.112305,270.954193 314.891815,270.954193 
	C314.891327,271.203827 314.890869,271.453491 314.890381,271.703125 
	C305.977356,271.703125 297.064331,271.703125 288.151306,271.703125 
	C288.141785,271.453522 288.132233,271.203918 288.122711,270.954315 
	C290.940674,270.954315 293.758667,270.954315 297.064941,270.954254 
z"/>
<path fill="#3A3A3A" opacity="1.000000" stroke="none" 
	d="
M334.005615,214.030533 
	C325.058777,214.030533 316.111969,214.030533 307.165131,214.030533 
	C307.164459,213.819931 307.163818,213.609329 307.163147,213.398727 
	C315.924377,213.398727 324.685608,213.398727 333.723022,213.698883 
	C333.999237,213.999039 334.005615,214.030533 334.005615,214.030533 
z"/>
<path fill="#3A3A3A" opacity="1.000000" stroke="none" 
	d="
M283.519165,213.003784 
	C283.991516,213.176804 283.996552,213.344650 284.001770,213.764557 
	C275.311401,214.017380 266.620850,214.018158 257.465271,214.009232 
	C257.000214,213.999527 256.980469,214.008270 256.980469,214.008270 
	C260.524811,213.667114 264.063263,213.142731 267.614899,213.028366 
	C272.755554,212.862793 277.905762,212.994003 283.519165,213.003784 
z"/>
<path fill="#2A2A2A" opacity="1.000000" stroke="none" 
	d="
M303.490173,216.761047 
	C301.248352,218.716507 299.160034,220.381424 297.071716,222.046341 
	C296.800812,221.664932 296.529907,221.283539 296.259003,220.902130 
	C298.205231,218.681229 299.670685,215.766571 303.490173,216.761047 
z"/>
<path fill="#2A2A2A" opacity="1.000000" stroke="none" 
	d="
M248.489899,219.307037 
	C249.279251,218.947891 249.930954,218.852097 250.582642,218.756317 
	C250.355286,219.294876 250.127945,219.833435 249.900604,220.371994 
	C249.384476,220.104797 248.868347,219.837585 248.489899,219.307037 
z"/>
<path fill="#2A2A2A" opacity="1.000000" stroke="none" 
	d="
M253.357758,215.458008 
	C253.885910,215.841080 254.149139,216.360596 254.412354,216.880127 
	C253.871918,217.105560 253.331497,217.330994 252.791077,217.556427 
	C252.891647,216.902435 252.992233,216.248444 253.357758,215.458008 
z"/>
<path fill="#2A2A2A" opacity="1.000000" stroke="none" 
	d="
M334.014954,214.002518 
	C334.885437,214.624695 335.740204,215.243408 336.595001,215.862106 
	C336.307220,216.172531 336.019440,216.482971 335.731689,216.793411 
	C335.172577,216.079803 334.613495,215.366180 334.029999,214.341553 
	C334.005615,214.030533 333.999237,213.999039 334.014954,214.002518 
z"/>
<path fill="#2A2A2A" opacity="1.000000" stroke="none" 
	d="
M211.554230,215.461029 
	C211.590576,215.520767 211.517883,215.401291 211.554230,215.461029 
z"/>
<path fill="#2A2A2A" opacity="1.000000" stroke="none" 
	d="
M256.996094,214.009399 
	C256.893921,214.049957 256.795837,214.080658 256.839111,214.059814 
	C256.980469,214.008270 257.000214,213.999527 256.996094,214.009399 
z"/>
</svg>